<svg width="64" height="64" viewBox="0 0 64 64" fill="none" xmlns="http://www.w3.org/2000/svg">
<g clip-path="url(#clip0_504_230)">
<mask id="mask0_504_230" style="mask-type:luminance" maskUnits="userSpaceOnUse" x="-29" y="-29" width="306" height="139">
<path d="M-28.0619 -28.0695H276.56V109.004H-28.0619V-28.0695Z" fill="white"/>
</mask>
<g mask="url(#mask0_504_230)">
<path d="M50.2016 63.6227C50.1383 63.8735 49.8875 63.999 49.45 63.999H41.084C40.5812 63.999 40.1459 63.7797 39.7685 63.3402L25.9541 45.767L22.1015 49.4319V63.0609C22.1015 63.688 21.7874 64.0011 21.1613 64.0011H14.6768C14.0496 64.0011 13.7366 63.688 13.7366 63.0609V0.940183C13.7366 0.315129 14.0496 0.0020752 14.6768 0.0020752H21.1624C21.7885 0.0020752 22.1026 0.316183 22.1026 0.940183V39.1897L38.6428 22.4619C39.0813 22.0244 39.5198 21.8041 39.9583 21.8041H48.6057C48.981 21.8041 49.2308 21.9622 49.3573 22.2732C49.4838 22.6495 49.4521 22.9309 49.2624 23.1196L31.7809 40.0329L50.0129 62.6824C50.2627 62.9333 50.3249 63.2464 50.2016 63.6227Z" fill="white"/>
</g>
</g>
<defs>
<clipPath id="clip0_504_230">
<rect width="64" height="64" fill="white"/>
</clipPath>
</defs>
</svg>
