<svg width="411" height="410" viewBox="0 0 411 410" fill="none" xmlns="http://www.w3.org/2000/svg">
<path fill-rule="evenodd" clip-rule="evenodd" d="M38.4387 1.01023C31.7517 2.33723 21.3667 7.80423 15.7647 12.9472C-0.523285 27.8992 -4.76328 53.3612 5.74072 73.1372C10.0147 81.1842 20.1637 90.6712 29.0117 94.8892C35.9537 98.2002 37.3317 98.4922 47.5327 98.8252C57.9057 99.1632 59.0277 99.0022 66.5947 96.0842C71.0167 94.3782 75.6007 92.0832 76.7817 90.9832C77.9617 89.8832 79.2417 88.9832 79.6257 88.9832C81.2797 88.9832 90.3797 77.9992 93.0817 72.7402C104.768 50.0022 98.7077 24.3342 78.0037 8.87123C67.8587 1.29323 52.4457 -1.76877 38.4387 1.01023ZM291.012 130.444C286.887 131.159 281.487 132.287 279.012 132.952C272.531 134.692 259.236 141.078 252.334 145.765C245.228 150.59 232.069 164.306 229.412 169.656L227.512 173.483L227.24 154.733L226.968 135.983H185.99H145.012V272.983V409.983H187.512H230.012L230.028 340.733C230.042 279.897 230.682 255.379 232.508 245.835C233.333 241.521 237.126 229.694 238.609 226.81C240.673 222.797 247.691 215.011 251.692 212.297C253.637 210.976 258.595 208.766 262.708 207.385C269.042 205.259 271.82 204.901 280.85 205.048C307.185 205.475 319.232 217.896 323.463 248.983C323.8 251.458 324.051 288.695 324.022 331.733L323.968 409.983H367.045H410.122L409.71 317.733C409.483 266.995 408.991 223.458 408.616 220.983C406.083 204.252 402.069 188.185 398.46 180.332C397.664 178.599 397.012 176.877 397.012 176.506C397.012 173.899 387.325 160.176 381.072 153.925C372.025 144.88 362.681 139.13 350.512 135.119C334.005 129.677 307.473 127.593 291.012 130.444ZM6.01172 272.983V409.983H49.0117H92.0117V272.983V135.983H49.0117H6.01172V272.983Z" fill="white"/>
<path fill-rule="evenodd" clip-rule="evenodd" d="M324.484 342.983C324.484 380.108 324.609 395.296 324.762 376.733C324.914 358.171 324.914 327.796 324.762 309.233C324.609 290.671 324.484 305.858 324.484 342.983Z" fill="white"/>
</svg>
