<svg width="512" height="478" viewBox="0 0 512 478" fill="none" xmlns="http://www.w3.org/2000/svg">
<path fill-rule="evenodd" clip-rule="evenodd" d="M439.871 1.41022C437.875 2.14522 434.32 4.01822 431.971 5.57222C429.049 7.50522 396.192 46.5242 328.023 129.011L228.347 249.623L212.174 297.385C196.205 344.54 194.84 349.751 196.975 355.369L197.95 357.934H182.43C167.284 357.934 166.85 357.993 164.455 360.389C161.044 363.8 161.044 370.068 164.455 373.479L166.909 375.934H256H345.091L347.545 373.479C350.632 370.393 350.895 364.261 348.089 360.795L346.178 358.434L290.374 357.934L234.571 357.434L270.931 336.986L307.291 316.538L314.543 307.986C349.727 266.497 506.74 75.3192 508.821 71.4342C511.239 66.9222 511.5 65.4102 511.5 55.9342C511.5 46.7912 511.192 44.8532 509.113 40.9342C505.436 34.0002 503.021 31.5582 485.688 17.2372C467.001 1.79922 463.193 -0.104779 451.212 0.00422104C446.971 0.043221 441.867 0.676221 439.871 1.41022ZM458.616 19.2192C464.441 22.5642 491.108 45.6432 492.475 48.5222C494.634 53.0732 494.4 59.7652 491.942 63.7982C490.14 66.7532 464.573 98.3122 459.925 103.319C458.229 105.145 457.376 104.542 432.546 83.9722C415.009 69.4442 407.197 62.3762 407.804 61.5872C419.88 45.9082 441.979 20.4162 444.413 19.3562C448.262 17.6812 455.809 17.6082 458.616 19.2192ZM55.5 43.3982C33.755 47.4722 15.895 61.2262 6.508 81.1292C0.563 93.7362 0 97.5492 0 125.243C0 153.493 0.352 155.153 7.332 159.773L11.352 162.434L65.176 162.717L119 163V289.509C119 428.557 118.811 423.945 125.064 437.735C132.93 455.083 145.966 467.191 164.465 474.332L172.5 477.434L312.5 477.715C469.041 478.028 459.831 478.414 474.787 470.912C488.276 464.146 498.429 453.921 505.052 440.434C509.13 432.128 512 422.672 512 417.54C512 412.456 508.238 406.158 503.566 403.42L499.324 400.934H446.162H393V326.857V252.78L390.077 249.857C388.082 247.862 386.152 246.934 384 246.934C381.848 246.934 379.918 247.862 377.923 249.857L375 252.78V326.835V400.891L311.75 401.162L248.5 401.434L245.235 403.763C241.139 406.684 239.109 410.574 237.388 418.798C233.398 437.871 219.596 452.897 201.068 458.339C193.401 460.591 180.739 460.406 172.705 457.925C160.302 454.094 148.78 444.345 142.885 432.694C136.744 420.555 137.033 429.08 136.997 258.934C136.97 126.526 136.748 102.394 135.505 96.4342C133.555 87.0922 126.327 72.7702 119.986 65.6842L114.84 59.9342L221.17 59.9512C336.091 59.9702 334.401 59.8972 346 65.3362C352.854 68.5492 356.116 68.5982 359.672 65.5402C361.858 63.6592 362.455 62.2842 362.455 59.1202C362.455 54.0032 360.556 51.9062 352.761 48.4072C338.667 42.0822 349.596 42.5182 199.5 42.2932C90.024 42.1282 61.094 42.3502 55.5 43.3982ZM76 60.9792C93.714 63.7852 109.15 76.6812 116.047 94.4342C118.18 99.9262 118.412 102.32 118.785 122.684L119.193 144.934H68.596H18L18.012 124.184C18.025 101.142 18.694 97.0412 24.085 86.9252C30.794 74.3392 43.845 64.5542 58 61.4972C66.092 59.7492 67.908 59.6972 76 60.9792ZM421.22 98.4342L446.677 119.434L440.589 126.76C437.24 130.79 433.769 135.024 432.876 136.169C431.282 138.213 430.783 137.864 406.127 117.499C392.309 106.086 380.758 96.3512 380.459 95.8672C379.884 94.9372 394.051 76.9752 395.131 77.2652C395.478 77.3582 407.218 86.8842 421.22 98.4342ZM164.455 87.3892C161.368 90.4762 161.105 96.6072 163.911 100.073L165.823 102.434L245.161 102.715C288.798 102.87 325.524 102.746 326.775 102.44C333.13 100.885 335.316 92.1592 330.545 87.3892L328.091 84.9342H247.5H166.909L164.455 87.3892ZM393.624 131.037C407.635 142.644 418.963 152.466 418.799 152.864C418.635 153.263 392.005 185.624 359.622 224.778C319.45 273.35 300.388 295.678 299.622 295.058C282.217 280.958 249.525 253.616 249.594 253.217C249.71 252.556 367.369 109.988 367.825 109.956C368.004 109.944 379.614 119.43 393.624 131.037ZM164.073 130.569C161.082 134.37 161.31 139.937 164.581 143.01L167.161 145.434H230H292.839L295.419 143.01C298.911 139.73 299.044 133.263 295.686 130.108L293.371 127.934H229.758H166.145L164.073 130.569ZM166.5 171.142C161.322 174.112 160.293 181.318 164.455 185.479L166.909 187.934H212.5H258.091L260.545 185.479C264.252 181.773 263.972 175.93 259.923 172.523L256.847 169.934L212.673 169.964C181.33 169.986 167.919 170.328 166.5 171.142ZM164.455 215.389C161.368 218.475 161.105 224.607 163.91 228.073L165.821 230.434L193.943 230.729L222.064 231.023L225.032 228.056C228.185 224.903 228.756 221.687 226.89 217.591C224.923 213.274 222.514 212.934 193.907 212.934H166.909L164.455 215.389ZM264.636 290.105L285.771 307.561L276.17 312.998C270.889 315.988 263.988 319.88 260.833 321.647L255.098 324.861L242.233 314.128L229.368 303.395L234.899 286.704C239.759 272.036 240.616 270.173 241.965 271.331C242.809 272.055 253.011 280.504 264.636 290.105ZM230.364 328.126C233.739 330.981 236.833 333.587 237.241 333.917C237.648 334.246 232.985 337.334 226.878 340.779C220.772 344.224 215.604 346.871 215.395 346.662C215.098 346.365 219.927 331.027 222.472 324.184C223.188 322.26 223.785 322.558 230.364 328.126ZM492.335 423.184C487.285 440.205 474.117 453.331 457.068 458.339C452.243 459.756 439.537 459.934 343.239 459.934H234.84L239.874 454.286C247.515 445.713 252.384 435.512 255.43 421.689L256.036 418.944L350.268 418.684C402.095 418.541 455.613 418.313 469.196 418.179L493.892 417.934L492.335 423.184Z" fill="white"/>
</svg>
