<svg width="292" height="512" viewBox="0 0 292 512" fill="none" xmlns="http://www.w3.org/2000/svg">
<path fill-rule="evenodd" clip-rule="evenodd" d="M24.1542 1.05535C15.1642 4.00835 7.02419 11.2614 2.59319 20.2634C0.501185 24.5164 0.154182 26.6414 0.154182 35.2204C0.154182 52.7454 -8.53482 42.6944 104.544 155.97L204.121 255.72L104.544 355.47C-8.53482 468.746 0.154182 458.695 0.154182 476.22C0.154182 485.295 0.425183 486.755 3.08318 492.001C6.53718 498.817 13.1852 505.346 20.1542 508.766C24.4982 510.898 26.5322 511.22 35.6542 511.22C45.2342 511.22 46.6362 510.971 51.6542 508.378C56.1232 506.068 78.4712 484.237 170.884 391.904C265.336 297.533 285.169 277.25 287.884 272.246C290.987 266.528 291.154 265.684 291.154 255.72C291.154 245.756 290.987 244.912 287.884 239.194C285.169 234.19 265.336 213.907 170.884 119.536C76.9982 25.7324 56.1942 5.42035 51.6542 3.12935C47.0882 0.825351 44.6252 0.302351 37.1542 0.0473514C31.5942 -0.141649 26.6252 0.243352 24.1542 1.05535Z" fill="white"/>
<path fill-rule="evenodd" clip-rule="evenodd" d="M24.1542 1.05535C15.1642 4.00835 7.02419 11.2614 2.59319 20.2634C0.501185 24.5164 0.154182 26.6414 0.154182 35.2204C0.154182 52.7454 -8.53482 42.6944 104.544 155.97L204.121 255.72L104.544 355.47C-8.53482 468.746 0.154182 458.695 0.154182 476.22C0.154182 485.295 0.425183 486.755 3.08318 492.001C6.53718 498.817 13.1852 505.346 20.1542 508.766C24.4982 510.898 26.5322 511.22 35.6542 511.22C45.2342 511.22 46.6362 510.971 51.6542 508.378C56.1232 506.068 78.4712 484.237 170.884 391.904C265.336 297.533 285.169 277.25 287.884 272.246C290.987 266.528 291.154 265.684 291.154 255.72C291.154 245.756 290.987 244.912 287.884 239.194C285.169 234.19 265.336 213.907 170.884 119.536C76.9982 25.7324 56.1942 5.42035 51.6542 3.12935C47.0882 0.825351 44.6252 0.302351 37.1542 0.0473514C31.5942 -0.141649 26.6252 0.243352 24.1542 1.05535Z" fill="white"/>
<path fill-rule="evenodd" clip-rule="evenodd" d="M24.1542 1.05535C15.1642 4.00835 7.02419 11.2614 2.59319 20.2634C0.501185 24.5164 0.154182 26.6414 0.154182 35.2204C0.154182 52.7454 -8.53482 42.6944 104.544 155.97L204.121 255.72L104.544 355.47C-8.53482 468.746 0.154182 458.695 0.154182 476.22C0.154182 485.295 0.425183 486.755 3.08318 492.001C6.53718 498.817 13.1852 505.346 20.1542 508.766C24.4982 510.898 26.5322 511.22 35.6542 511.22C45.2342 511.22 46.6362 510.971 51.6542 508.378C56.1232 506.068 78.4712 484.237 170.884 391.904C265.336 297.533 285.169 277.25 287.884 272.246C290.987 266.528 291.154 265.684 291.154 255.72C291.154 245.756 290.987 244.912 287.884 239.194C285.169 234.19 265.336 213.907 170.884 119.536C76.9982 25.7324 56.1942 5.42035 51.6542 3.12935C47.0882 0.825351 44.6252 0.302351 37.1542 0.0473514C31.5942 -0.141649 26.6252 0.243352 24.1542 1.05535Z" fill="white"/>
</svg>
