<svg width="292" height="512" viewBox="0 0 292 512" fill="none" xmlns="http://www.w3.org/2000/svg">
<path fill-rule="evenodd" clip-rule="evenodd" d="M267 510.165C275.99 507.212 284.13 499.959 288.561 490.957C290.653 486.704 291 484.579 291 476C291 458.475 299.689 468.526 186.61 355.25L87.0331 255.5L186.61 155.75C299.689 42.474 291 52.525 291 35C291 25.925 290.729 24.465 288.071 19.219C284.617 12.403 277.969 5.87401 271 2.45401C266.656 0.32201 264.622 0 255.5 0C245.92 0 244.518 0.249011 239.5 2.84201C235.031 5.15201 212.683 26.983 120.27 119.316C25.8181 213.687 5.98511 233.97 3.27011 238.974C0.167111 244.692 0.00012207 245.536 0.00012207 255.5C0.00012207 265.464 0.167111 266.308 3.27011 272.026C5.98511 277.03 25.8181 297.313 120.27 391.684C214.156 485.488 234.96 505.8 239.5 508.091C244.066 510.395 246.529 510.918 254 511.173C259.56 511.362 264.529 510.977 267 510.165Z" fill="white"/>
<path fill-rule="evenodd" clip-rule="evenodd" d="M267 510.165C275.99 507.212 284.13 499.959 288.561 490.957C290.653 486.704 291 484.579 291 476C291 458.475 299.689 468.526 186.61 355.25L87.0331 255.5L186.61 155.75C299.689 42.474 291 52.525 291 35C291 25.925 290.729 24.465 288.071 19.219C284.617 12.403 277.969 5.87401 271 2.45401C266.656 0.32201 264.622 0 255.5 0C245.92 0 244.518 0.249011 239.5 2.84201C235.031 5.15201 212.683 26.983 120.27 119.316C25.8181 213.687 5.98511 233.97 3.27011 238.974C0.167111 244.692 0.00012207 245.536 0.00012207 255.5C0.00012207 265.464 0.167111 266.308 3.27011 272.026C5.98511 277.03 25.8181 297.313 120.27 391.684C214.156 485.488 234.96 505.8 239.5 508.091C244.066 510.395 246.529 510.918 254 511.173C259.56 511.362 264.529 510.977 267 510.165Z" fill="white"/>
<path fill-rule="evenodd" clip-rule="evenodd" d="M267 510.165C275.99 507.212 284.13 499.959 288.561 490.957C290.653 486.704 291 484.579 291 476C291 458.475 299.689 468.526 186.61 355.25L87.0331 255.5L186.61 155.75C299.689 42.474 291 52.525 291 35C291 25.925 290.729 24.465 288.071 19.219C284.617 12.403 277.969 5.87401 271 2.45401C266.656 0.32201 264.622 0 255.5 0C245.92 0 244.518 0.249011 239.5 2.84201C235.031 5.15201 212.683 26.983 120.27 119.316C25.8181 213.687 5.98511 233.97 3.27011 238.974C0.167111 244.692 0.00012207 245.536 0.00012207 255.5C0.00012207 265.464 0.167111 266.308 3.27011 272.026C5.98511 277.03 25.8181 297.313 120.27 391.684C214.156 485.488 234.96 505.8 239.5 508.091C244.066 510.395 246.529 510.918 254 511.173C259.56 511.362 264.529 510.977 267 510.165Z" fill="white"/>
</svg>
