<svg width="512" height="416" viewBox="0 0 512 416" fill="none" xmlns="http://www.w3.org/2000/svg">
<path fill-rule="evenodd" clip-rule="evenodd" d="M333.5 1.34701C301.574 8.45201 276.256 27.498 261.183 55.75C250.834 75.147 246.762 101.454 250.62 124L251.262 127.75H247.351C245.2 127.75 237.829 127.06 230.97 126.216C166.034 118.229 106.526 89.614 59.712 43.866C53.229 37.53 45.376 29.287 42.261 25.548C39.147 21.809 36.246 18.75 35.816 18.75C33.215 18.75 24.784 41.062 22.618 53.676C15.822 93.264 31.099 131.814 63.384 156.54L66.268 158.748L61.384 158.185C48.737 156.726 34.687 152.692 24.952 147.726C22.822 146.639 20.769 145.75 20.39 145.75C20.011 145.75 19.983 149.729 20.328 154.593C22.539 185.736 37.702 213.597 62.467 232.017C72.135 239.208 81.708 244.173 92.92 247.808L101.34 250.538L95.523 251.745C88.655 253.171 68.512 253.582 61.75 252.434C58.408 251.867 57 251.963 57 252.758C57 255.666 63.85 269.825 69.193 277.962C86.346 304.086 115.479 321.969 146.242 325.26L152.985 325.981L148.469 329.429C128.999 344.296 98.869 357.922 71.5 364.238C53.826 368.317 24.576 370.543 8.75 369.013C3.938 368.548 0 368.479 0 368.859C0 369.24 5.063 372.473 11.25 376.045C49.43 398.087 86.775 410.005 132.791 414.834C147.037 416.328 191.682 415.444 205 413.404C262.52 404.592 307.97 385.095 349.145 351.571C417.312 296.07 459.925 206.502 459.989 118.589L460 103.927L468.881 96.845C480.243 87.784 498.035 69.283 506.009 58.237C509.425 53.506 512.002 49.418 511.736 49.153C511.471 48.887 507.934 49.982 503.877 51.586C495.739 54.804 482.242 59.026 474.5 60.775C465.821 62.737 454.832 64.512 455.682 63.815C456.132 63.446 459.068 61.216 462.207 58.859C469.547 53.347 480.438 41.851 485.342 34.44C489.452 28.228 496.413 14 497.521 9.54501C498.181 6.89101 497.939 6.96801 484.847 13.568C471.593 20.249 453.53 26.933 438.836 30.593L431.173 32.502L426.836 28.08C417.03 18.081 397.091 6.93801 381.5 2.74201C370.638 -0.18099 343.864 -0.958991 333.5 1.34701Z" fill="white"/>
</svg>
